<svg width="124" height="150" viewBox="0 0 124 150" fill="none" xmlns="http://www.w3.org/2000/svg">
<path d="M92.629 84.7443C97.7343 78.0123 100.433 69.977 100.433 61.5067C100.433 51.1214 96.3596 41.3859 88.9636 34.0935C81.5689 26.8028 71.7679 22.8656 61.3813 23.0156C51.3158 23.1581 41.8328 27.197 34.6789 34.3883C27.5254 41.5794 23.5355 51.0839 23.444 61.1503C23.3657 69.7802 26.0799 77.96 31.2931 84.8059C39.7562 95.9193 44.4173 109.532 44.4173 123.138V138.024C44.4173 144.628 49.7895 150 56.3928 150H67.5319C74.1353 150 79.5075 144.628 79.5075 138.024V123.139C79.5078 109.383 84.0123 96.1062 92.629 84.7443ZM35.2198 81.8159C30.6765 75.8499 28.3111 68.7194 28.3792 61.1954C28.5434 43.1199 43.3792 28.2064 61.4511 27.9508C70.5169 27.829 79.0521 31.2526 85.4982 37.6086C91.9463 43.9659 95.4972 52.4533 95.4972 61.507C95.4972 68.8912 93.1456 75.8953 88.6964 81.7623C79.6174 93.7342 74.7289 107.701 74.5289 122.21H49.3459C49.1396 107.842 44.1416 93.5315 35.2198 81.8159ZM49.3528 136.352V134.354L74.5723 137.243V138.024C74.5723 138.436 74.5295 138.837 74.4617 139.228L49.3528 136.352ZM49.3528 129.386V127.146H74.5723V132.276L49.3528 129.386ZM56.3928 145.065C53.7418 145.065 51.4303 143.591 50.2297 141.42L71.4744 143.854C70.3488 144.618 68.9919 145.064 67.5323 145.064H56.3928V145.065Z" fill="white"/>
<path d="M37.5349 65.2188C37.3424 63.9273 37.2506 62.6007 37.2627 61.276C37.2752 59.9131 36.1806 58.7984 34.8177 58.7859C33.464 58.774 32.3401 59.8681 32.3276 61.2309C32.3131 62.8136 32.4227 64.4002 32.6533 65.947C32.8359 67.1716 33.8888 68.0511 35.0911 68.0511C35.2122 68.0511 35.3349 68.0422 35.4583 68.0238C36.806 67.8225 37.7359 66.5669 37.5349 65.2188Z" fill="white"/>
<path d="M52.0575 102.703C52.3128 102.703 52.5728 102.663 52.8288 102.579C54.1235 102.153 54.828 100.758 54.4022 99.464C51.6673 91.147 47.5912 83.3982 42.2872 76.4336C41.4106 75.2823 40.6338 74.056 39.9787 72.7882C39.3529 71.5774 37.864 71.1036 36.6531 71.7294C35.4426 72.3552 34.9685 73.8441 35.5943 75.0549C36.3807 76.5757 37.3112 78.0455 38.3608 79.4238C43.3312 85.9506 47.151 93.2117 49.7138 101.006C50.0553 102.044 51.0204 102.703 52.0575 102.703Z" fill="white"/>
<path d="M87.8672 69.9569C86.6156 69.4176 85.1635 69.9954 84.6246 71.247C83.8428 73.0626 82.831 74.7943 81.6175 76.3941C80.794 77.4799 81.0069 79.028 82.0927 79.8516C82.5385 80.1898 83.0623 80.353 83.5819 80.353C84.3278 80.353 85.0648 80.0164 85.5502 79.3761C87.0042 77.4588 88.2176 75.3807 89.1574 73.1995C89.6966 71.9479 89.1192 70.4958 87.8672 69.9569Z" fill="white"/>
<path d="M61.9377 36.8314C75.5439 36.8314 86.6133 47.9011 86.6133 61.5073C86.6133 62.2809 86.5778 63.0604 86.5077 63.824C86.3833 65.1813 87.3822 66.3823 88.7395 66.507C88.8162 66.5139 88.8922 66.5175 88.9679 66.5175C90.2291 66.5175 91.305 65.5557 91.4225 64.2751C91.506 63.3621 91.5488 62.4309 91.5488 61.5073C91.5488 45.1797 78.2654 31.8959 61.9377 31.8959C60.5749 31.8959 59.47 33.0008 59.47 34.3637C59.47 35.7265 60.5749 36.8314 61.9377 36.8314Z" fill="white"/>
<path d="M61.9377 18.7549C63.3006 18.7549 64.4055 17.65 64.4055 16.2872V2.46775C64.4055 1.1049 63.3006 0 61.9377 0C60.5749 0 59.47 1.1049 59.47 2.46775V16.2872C59.47 17.65 60.5749 18.7549 61.9377 18.7549Z" fill="white"/>
<path d="M36.972 23.6312C37.4293 24.4232 38.2585 24.8657 39.1114 24.8657C39.5299 24.8657 39.9543 24.7591 40.3429 24.5347C41.5232 23.8533 41.9279 22.344 41.2465 21.1638L34.34 9.20011C33.6583 8.01954 32.1493 7.61516 30.9691 8.29658C29.7888 8.97801 29.3841 10.4873 30.0656 11.6675L36.972 23.6312Z" fill="white"/>
<path d="M114.675 89.5351L102.711 82.6287C101.531 81.9469 100.021 82.3516 99.3403 83.5322C98.6589 84.7124 99.0632 86.2217 100.244 86.9031L112.207 93.8096C112.596 94.034 113.02 94.1406 113.439 94.1406C114.292 94.1406 115.121 93.6977 115.578 92.906C116.26 91.7258 115.855 90.2165 114.675 89.5351Z" fill="white"/>
<path d="M9.20011 34.3399L21.1638 41.2464C21.5524 41.4708 21.9765 41.5774 22.3954 41.5774C23.2482 41.5774 24.0777 41.1345 24.5347 40.3428C25.2162 39.1626 24.8118 37.6533 23.6312 36.9719L11.6675 30.0655C10.4873 29.3837 8.97801 29.7884 8.29658 30.969C7.61516 32.1492 8.01954 33.6582 9.20011 34.3399Z" fill="white"/>
<path d="M121.407 59.4696H107.588C106.225 59.4696 105.12 60.5745 105.12 61.9374C105.12 63.3002 106.225 64.4051 107.588 64.4051H121.407C122.77 64.4051 123.875 63.3002 123.875 61.9374C123.875 60.5745 122.77 59.4696 121.407 59.4696Z" fill="white"/>
<path d="M18.7549 61.9374C18.7549 60.5745 17.65 59.4696 16.2872 59.4696H2.46775C1.1049 59.4696 0 60.5745 0 61.9374C0 63.3002 1.1049 64.4051 2.46775 64.4051H16.2872C17.6504 64.4051 18.7549 63.3002 18.7549 61.9374Z" fill="white"/>
<path d="M101.48 41.5774C101.898 41.5774 102.323 41.4708 102.711 41.2464L114.675 34.34C115.855 33.6585 116.26 32.1493 115.578 30.969C114.897 29.7888 113.387 29.3841 112.207 30.0655L100.244 36.9719C99.0635 37.6533 98.6588 39.1626 99.3402 40.3429C99.7972 41.1345 100.627 41.5774 101.48 41.5774Z" fill="white"/>
<path d="M21.1637 82.6286L9.20004 89.535C8.0198 90.2165 7.61508 91.7257 8.29651 92.906C8.75354 93.6976 9.58304 94.1405 10.4359 94.1405C10.8544 94.1405 11.2789 94.0339 11.6675 93.8095L23.6311 86.9031C24.8114 86.2217 25.2161 84.7124 24.5347 83.5321C23.8536 82.3516 22.3433 81.9472 21.1637 82.6286Z" fill="white"/>
<path d="M83.5321 24.5347C83.9207 24.7591 84.3448 24.8657 84.7636 24.8657C85.6165 24.8657 86.446 24.4229 86.903 23.6312L93.8094 11.6675C94.4909 10.4873 94.0862 8.97801 92.9059 8.29658C91.726 7.61516 90.2164 8.01954 89.535 9.20011L82.6285 21.1638C81.9471 22.344 82.3518 23.8533 83.5321 24.5347Z" fill="white"/>
</svg>
