<?xml version="1.0" standalone="no"?>
<!DOCTYPE svg PUBLIC "-//W3C//DTD SVG 20010904//EN"
 "http://www.w3.org/TR/2001/REC-SVG-20010904/DTD/svg10.dtd">
<svg version="1.0" xmlns="http://www.w3.org/2000/svg"
 width="150.000000pt" height="150.000000pt" viewBox="0 0 150.000000 150.000000"
 preserveAspectRatio="xMidYMid meet">
<metadata>
Created by potrace 1.14, written by Peter Selinger 2001-2017
</metadata>
<g transform="translate(0.000000,150.000000) scale(0.100000,-0.100000)"
fill="#000000" stroke="none">
<path d="M725 1487 c-3 -7 -5 -49 -3 -93 3 -77 4 -79 28 -79 25 0 25 1 25 90
0 86 -1 90 -23 93 -12 2 -24 -3 -27 -11z"/>
<path d="M425 1410 c-3 -5 12 -44 35 -85 30 -54 47 -75 61 -75 34 0 32 28 -8
97 -38 66 -71 90 -88 63z"/>
<path d="M990 1357 c-41 -72 -44 -101 -14 -105 18 -3 29 10 62 69 42 76 44 99
8 99 -15 0 -30 -17 -56 -63z"/>
<path d="M635 1257 c-131 -44 -226 -143 -260 -272 -30 -117 -10 -225 64 -334
98 -144 131 -254 131 -434 0 -189 23 -217 180 -217 157 0 180 28 180 217 0
186 29 284 128 430 59 88 77 144 77 243 0 74 -4 93 -32 152 -42 89 -101 151
-181 190 -56 28 -77 33 -156 35 -56 2 -106 -2 -131 -10z m252 -72 c64 -29 131
-95 164 -160 20 -42 24 -65 24 -140 0 -99 -8 -122 -87 -237 -53 -78 -93 -183
-109 -286 l-12 -82 -118 0 -118 0 -7 57 c-14 119 -60 234 -139 349 -53 78 -69
135 -63 223 17 230 254 371 465 276z m-17 -985 c0 -18 -5 -20 -32 -15 -18 3
-71 9 -117 15 -46 5 -86 12 -89 15 -3 3 49 5 116 5 116 0 122 -1 122 -20z
m-77 -66 c37 -4 70 -11 74 -16 3 -6 -3 -8 -13 -5 -11 3 -55 9 -98 13 -44 4
-91 11 -105 15 -27 9 -21 9 142 -7z m7 -75 c17 -5 3 -8 -46 -8 -47 -1 -76 4
-90 14 -17 13 -13 14 46 8 36 -3 76 -10 90 -14z"/>
<path d="M733 1175 c-27 -20 -9 -42 41 -48 123 -17 215 -119 216 -237 0 -48
12 -64 40 -55 21 7 22 12 18 69 -12 139 -116 254 -249 275 -34 6 -54 4 -66 -4z"/>
<path d="M462 911 c-8 -5 -12 -23 -10 -47 3 -34 6 -39 28 -39 21 0 26 5 28 33
2 18 -2 40 -9 48 -13 16 -19 17 -37 5z"/>
<path d="M965 771 c-29 -43 -30 -74 -3 -79 25 -5 75 74 62 96 -18 28 -32 24
-59 -17z"/>
<path d="M487 783 c-14 -13 -6 -34 41 -106 27 -41 61 -105 77 -141 23 -55 32
-66 49 -64 16 2 21 9 19 31 -3 41 -56 149 -109 223 -42 60 -61 74 -77 57z"/>
<path d="M221 1201 c-26 -17 -5 -46 61 -85 71 -40 102 -42 96 -5 -4 27 -136
103 -157 90z"/>
<path d="M1191 1169 c-51 -29 -71 -45 -71 -60 0 -35 27 -32 99 11 48 27 71 47
71 59 0 33 -25 30 -99 -10z"/>
<path d="M134 895 c-14 -36 3 -45 83 -45 86 0 107 8 101 36 -3 17 -14 19 -91
22 -71 2 -88 0 -93 -13z"/>
<path d="M1184 895 c-15 -38 2 -46 93 -43 86 3 88 3 88 28 0 25 -2 25 -88 28
-71 2 -88 0 -93 -13z"/>
<path d="M280 642 c-43 -24 -66 -45 -68 -58 -5 -36 22 -34 97 9 56 32 71 46
69 62 -5 31 -28 28 -98 -13z"/>
<path d="M1127 673 c-21 -20 -2 -44 65 -81 75 -42 101 -44 96 -8 -2 13 -25 33
-68 58 -65 38 -81 44 -93 31z"/>
</g>
</svg>
